<svg xmlns="http://www.w3.org/2000/svg" width="90" height="90" viewBox="0 0 90 90">
    <g fill="#009246" fill-rule="nonzero">
        <path d="M45 0C20.188 0 0 20.186 0 45s20.188 45 45 45 45-20.186 45-45S69.812 0 45 0zm0 86.25C22.256 86.25 3.75 67.744 3.75 45S22.256 3.75 45 3.75 86.25 22.256 86.25 45 67.744 86.25 45 86.25z" opacity=".291"/>
        <path d="M61.814 33.42l-19.21 21.613-11.574-9.259a1.25 1.25 0 0 0-1.561 1.952l12.5 10a1.248 1.248 0 0 0 1.716-.146l20-22.5a1.25 1.25 0 1 0-1.87-1.66z"/>
    </g>
</svg>
